<?xml version="1.0" encoding="UTF-8"?>
<svg version="1.1" xmlns="http://www.w3.org/2000/svg" width="219" height="41">
<path d="M0 0 C4.29 0 8.58 0 13 0 C13 1.32 13 2.64 13 4 C13.99 4 14.98 4 16 4 C16 7.3 16 10.6 16 14 C15.01 14 14.02 14 13 14 C13 15.65 13 17.3 13 19 C15.64 19 18.28 19 21 19 C21 23.62 21 28.24 21 33 C18.60347472 33.08139142 16.20974564 33.14067009 13.8125 33.1875 C12.80219727 33.22520508 12.80219727 33.22520508 11.77148438 33.26367188 C7.28584409 33.32931539 4.59603107 32.68855807 1 30 C0 29 0 29 -0.09765625 25.62109375 C-0.09098369 24.22652923 -0.07902532 22.83198257 -0.0625 21.4375 C-0.05798828 20.72658203 -0.05347656 20.01566406 -0.04882812 19.28320312 C-0.03700864 17.52209987 -0.01907263 15.76103964 0 14 C-0.99 14 -1.98 14 -3 14 C-3 15.32 -3 16.64 -3 18 C-5.97 18.66 -8.94 19.32 -12 20 C-12.33 23.96 -12.66 27.92 -13 32 C-17.29 32 -21.58 32 -26 32 C-26 22.76 -26 13.52 -26 4 C-21.71 4.33 -17.42 4.66 -13 5 C-12.67 4.67 -12.34 4.34 -12 4 C-9.98035801 3.92755947 -7.95832876 3.91622812 -5.9375 3.9375 C-4.83277344 3.94652344 -3.72804688 3.95554687 -2.58984375 3.96484375 C-1.73519531 3.97644531 -0.88054687 3.98804688 0 4 C0 2.68 0 1.36 0 0 Z " fill="#E6EC7D" transform="translate(125,4)"/>
<path d="M0 0 C1.29873047 0.00966797 2.59746094 0.01933594 3.93554688 0.02929688 C5.30729764 0.0543629 6.67904243 0.07975774 8.05078125 0.10546875 C9.43423049 0.12051855 10.81769526 0.13420645 12.20117188 0.14648438 C15.58893332 0.18189652 18.97591264 0.23128821 22.36328125 0.29296875 C22.36328125 5.29296875 22.36328125 10.29296875 22.36328125 15.29296875 C22.85828125 15.78796875 22.85828125 15.78796875 23.36328125 16.29296875 C23.51677261 18.76654112 23.5948801 21.19301394 23.61328125 23.66796875 C23.63390625 24.35375 23.65453125 25.03953125 23.67578125 25.74609375 C23.7146833 30.7450078 23.7146833 30.7450078 22.27124023 32.99584961 C19.38227639 34.95990142 16.96662761 34.62971997 13.5078125 34.5859375 C12.84617599 34.58169266 12.18453949 34.57744781 11.50285339 34.57307434 C9.39341215 34.55630568 7.28493279 34.51865974 5.17578125 34.48046875 C3.74415444 34.46541943 2.31251263 34.45173145 0.88085938 34.43945312 C-2.62566702 34.40896159 -6.13011869 34.35024534 -9.63671875 34.29296875 C-9.63671875 30.00296875 -9.63671875 25.71296875 -9.63671875 21.29296875 C-8.97671875 20.96296875 -8.31671875 20.63296875 -7.63671875 20.29296875 C-8.29671875 19.63296875 -8.95671875 18.97296875 -9.63671875 18.29296875 C-9.86226956 15.76504212 -9.96110466 13.38241299 -9.94921875 10.85546875 C-9.96533203 10.17419922 -9.98144531 9.49292969 -9.99804688 8.79101562 C-10.00288133 3.85504202 -10.00288133 3.85504202 -8.52880859 1.59228516 C-5.70106076 -0.34955665 -3.39858049 -0.04452289 0 0 Z " fill="#E6EC7D" transform="translate(11.63671875,1.70703125)"/>
<path d="M0 0 C5 0 10 0 15 0 C15.89589844 -0.04640625 16.79179688 -0.0928125 17.71484375 -0.140625 C18.77832031 -0.17671875 19.84179688 -0.2128125 20.9375 -0.25 C22.52884766 -0.31960937 22.52884766 -0.31960937 24.15234375 -0.390625 C27 0 27 0 28.65307617 1.72167969 C30.19951627 4.33748157 30.38619008 5.82738446 30.3984375 8.84375 C30.40423828 10.21853516 30.40423828 10.21853516 30.41015625 11.62109375 C30.39855469 12.57113281 30.38695313 13.52117188 30.375 14.5 C30.38660156 15.45003906 30.39820312 16.40007813 30.41015625 17.37890625 C30.40628906 18.29542969 30.40242188 19.21195313 30.3984375 20.15625 C30.39336182 21.40631836 30.39336182 21.40631836 30.38818359 22.68164062 C29.91116656 25.53054238 28.98044308 26.92029914 27 29 C24.3359375 29.42578125 24.3359375 29.42578125 21.375 29.3125 C19.90160156 29.27576172 19.90160156 29.27576172 18.3984375 29.23828125 C16 29 16 29 15 28 C14.67 29.32 14.34 30.64 14 32 C9.38 32 4.76 32 0 32 C0 21.44 0 10.88 0 0 Z M20 12 C19.67 12.99 19.34 13.98 19 15 C19.99 15 20.98 15 22 15 C21.67 14.01 21.34 13.02 21 12 C20.67 12 20.34 12 20 12 Z " fill="#E6EB7E" transform="translate(37,8)"/>
<path d="M0 0 C1.11052734 -0.02449219 2.22105469 -0.04898437 3.36523438 -0.07421875 C4.42935547 -0.07808594 5.49347656 -0.08195313 6.58984375 -0.0859375 C7.56687256 -0.09415527 8.54390137 -0.10237305 9.55053711 -0.11083984 C12.0625 0.375 12.0625 0.375 13.88183594 2.09887695 C15.23360467 4.70486121 15.43615766 6.33084411 15.42578125 9.25390625 C15.42513672 10.17494141 15.42449219 11.09597656 15.42382812 12.04492188 C15.40771484 12.99947266 15.39160156 13.95402344 15.375 14.9375 C15.37983398 16.37512695 15.37983398 16.37512695 15.38476562 17.84179688 C15.32978664 24.97407003 15.32978664 24.97407003 13.0625 28.375 C10.44873047 28.71557617 10.44873047 28.71557617 7.1796875 28.66796875 C6.01308594 28.65830078 4.84648438 28.64863281 3.64453125 28.63867188 C2.42121094 28.61353516 1.19789062 28.58839844 -0.0625 28.5625 C-1.29355469 28.54896484 -2.52460937 28.53542969 -3.79296875 28.52148438 C-6.84157843 28.48603543 -9.889325 28.43662079 -12.9375 28.375 C-14.99681145 24.25637709 -14.12239262 18.90140955 -14.125 14.375 C-14.13724609 13.25609375 -14.14949219 12.1371875 -14.16210938 10.984375 C-14.16404297 9.91703125 -14.16597656 8.8496875 -14.16796875 7.75 C-14.17207764 6.76773437 -14.17618652 5.78546875 -14.18041992 4.7734375 C-13.49184376 -2.02512757 -5.12587342 0.00592929 0 0 Z M0.0625 12.375 C0.0625 13.365 0.0625 14.355 0.0625 15.375 C0.7225 15.045 1.3825 14.715 2.0625 14.375 C2.0625 13.715 2.0625 13.055 2.0625 12.375 C1.4025 12.375 0.7425 12.375 0.0625 12.375 Z " fill="#E6EC7D" transform="translate(81.9375,7.625)"/>
<path d="M0 0 C9 0 18 0 27 0 C27 9.57 27 19.14 27 29 C18.09 29 9.18 29 0 29 C0 19.43 0 9.86 0 0 Z " fill="#E6EB7D" transform="translate(192,8)"/>
<path d="M0 0 C1.02802734 0.00966797 2.05605469 0.01933594 3.11523438 0.02929688 C4.72301758 0.06700195 4.72301758 0.06700195 6.36328125 0.10546875 C7.44673828 0.11900391 8.53019531 0.13253906 9.64648438 0.14648438 C12.3234153 0.18186232 14.99934963 0.23122686 17.67578125 0.29296875 C17.67578125 4.62630208 17.67578125 8.95963542 17.67578125 13.29296875 C18.00578125 14.28296875 18.33578125 15.27296875 18.67578125 16.29296875 C19.09559257 25.10900649 19.09559257 25.10900649 16.67578125 28.29296875 C13.67562213 29.29302179 11.70154369 29.4087246 8.5703125 29.390625 C7.58740234 29.38740234 6.60449219 29.38417969 5.59179688 29.38085938 C4.56763672 29.37248047 3.54347656 29.36410156 2.48828125 29.35546875 C1.45251953 29.35095703 0.41675781 29.34644531 -0.65039062 29.34179688 C-3.20835795 29.33000901 -5.76629561 29.31207357 -8.32421875 29.29296875 C-8.32421875 25.33296875 -8.32421875 21.37296875 -8.32421875 17.29296875 C-7.66421875 16.96296875 -7.00421875 16.63296875 -6.32421875 16.29296875 C-6.98421875 15.30296875 -7.64421875 14.31296875 -8.32421875 13.29296875 C-8.625 10.91796875 -8.625 10.91796875 -8.63671875 8.29296875 C-8.65347656 7.42671875 -8.67023438 6.56046875 -8.6875 5.66796875 C-7.89436837 0.48276412 -4.75688863 -0.07884346 0 0 Z " fill="#E6EC7D" transform="translate(155.32421875,7.70703125)"/>
<path d="M0 0 C4.95 0 9.9 0 15 0 C15 11.22 15 22.44 15 34 C10.05 34 5.1 34 0 34 C0 22.78 0 11.56 0 0 Z " fill="#E5EC7E" transform="translate(175,2)"/>
</svg>
