<?xml version="1.0" encoding="UTF-8"?>
<svg version="1.1" xmlns="http://www.w3.org/2000/svg" width="512" height="512">
<path d="M0 0 C1.2375 0.42962036 1.2375 0.42962036 2.5 0.86791992 C6.73670675 2.42037266 10.71457875 4.06086929 14.56521606 6.4234314 C27.61203293 14.18177445 39.25011578 14.47012864 54.14453125 14.2421875 C56.52821387 14.2402183 58.91190379 14.2426698 61.295578 14.2492981 C67.51321809 14.2568631 73.72937279 14.21374838 79.94671631 14.15667725 C89.94039788 14.07344067 99.93438024 14.06736594 109.92835045 14.06363297 C113.4080173 14.05481175 116.88691797 14.02341325 120.3664093 13.98849487 C122.49142238 13.97866328 124.61643764 13.96928959 126.74145508 13.96044922 C128.18689194 13.93708748 128.18689194 13.93708748 129.66152954 13.91325378 C138.1027354 13.90881021 138.1027354 13.90881021 141.9375 17.25 C144.22967285 20.44775924 144.13584427 23.17954094 143.99682617 27.03613281 C143.95987137 28.20943649 143.92291656 29.38274017 143.88484192 30.59159851 C143.83389877 31.86590225 143.78295563 33.14020599 143.73046875 34.453125 C143.68413315 35.79646141 143.638758 37.13983126 143.59428406 38.48323059 C143.49800805 41.33940842 143.39542821 44.19526612 143.28826904 47.05105591 C143.12223394 51.50678569 142.97864155 55.96307299 142.83837891 60.41967773 C142.45982663 72.28964105 142.07758271 84.1574896 141.44483948 96.0171814 C141.25381694 99.63630328 141.09148043 103.25640018 140.93301392 106.8770752 C140.85413367 108.47113927 140.75966075 110.06452677 140.64779663 111.65661621 C139.8377714 123.18783841 142.23441336 130.54914292 147.97924805 140.5305481 C150.04929165 144.24495786 151.51883336 148.21112446 153 152.1875 C153.48678223 153.48494141 153.48678223 153.48494141 153.98339844 154.80859375 C159.24798901 169.21586979 163.30477004 184.07413431 166.25 199.125 C166.47091309 200.24358398 166.47091309 200.24358398 166.69628906 201.38476562 C169.55442894 217.11457526 170.31655329 232.92026098 170.25 248.875 C170.24726578 250.2464769 170.24726578 250.2464769 170.24447632 251.6456604 C170.13291175 285.0216351 164.31644867 317.38779953 152.0625 348.5 C151.62587036 349.61411255 151.62587036 349.61411255 151.18041992 350.75073242 C149.64024952 354.53166939 148.02202675 358.10288312 145.98342896 361.65101624 C140.13988247 371.89806446 138.87610401 379.95277684 139.296875 391.60546875 C139.32204958 393.20724087 139.34297881 394.80908466 139.35992432 396.41096497 C139.41245722 400.57427477 139.50990324 404.73511236 139.62133789 408.8972168 C139.79575214 415.5938231 139.91293076 422.29116071 140.00550079 428.98934364 C140.04616935 431.31511403 140.11430026 433.63890299 140.18548584 435.96391296 C140.21279416 437.38762709 140.23922919 438.81135832 140.26464844 440.23510742 C140.29766052 441.47258224 140.33067261 442.71005707 140.36468506 443.98503113 C139.85396564 447.88845184 138.67851309 449.48356888 135.9375 452.25 C133.07721442 453.68014279 130.69424026 453.31993392 127.49780273 453.26489258 C126.12341467 453.24543861 124.74901944 453.22648627 123.37461853 453.20796204 C122.64249586 453.1968017 121.91037319 453.18564137 121.15606499 453.17414284 C116.40620166 453.11258802 111.65583873 453.11279537 106.90563869 453.10153675 C102.7611767 453.08826279 98.61905252 453.05454999 94.4753418 452.97241211 C73.32390538 452.57336963 58.02462393 453.89566468 39.36795044 464.87539673 C34.3377937 467.72033024 28.93630572 469.45662028 23.4375 471.1875 C22.33204834 471.54465088 21.22659668 471.90180176 20.08764648 472.26977539 C-40.09088405 491.08331784 -103.12939609 482.38189873 -160.0625 457.25 C-160.89605515 456.73894211 -161.72961029 456.22788422 -162.58842468 455.70133972 C-167.23604179 453.7597378 -171.22587198 453.84786063 -176.21118164 453.89697266 C-177.21839767 453.89481247 -178.22561371 453.89265228 -179.26335144 453.89042664 C-181.44371134 453.88734565 -183.62408868 453.89092778 -185.80443001 453.90044022 C-189.25518221 453.91419212 -192.70536027 453.90773344 -196.15611267 453.89559937 C-205.96454673 453.86465033 -215.77284625 453.8695475 -225.58129883 453.88964844 C-231.58596891 453.90055482 -237.59020627 453.88740194 -243.59481621 453.85975266 C-245.88216316 453.85430734 -248.16955328 453.858388 -250.45686531 453.87215042 C-253.65279634 453.89116148 -256.84730695 453.87982228 -260.04321289 453.86181641 C-260.98828705 453.87515518 -261.93336121 453.88849396 -262.90707397 453.90223694 C-267.44420423 453.84533543 -269.42761062 453.73714178 -273.12620544 450.89926147 C-276.44809992 446.35420554 -276.21581561 442.22110204 -276.23266602 436.80981445 C-276.24677084 435.02191526 -276.26106728 433.23401757 -276.27552795 431.44612122 C-276.28165667 430.49667948 -276.28778538 429.54723774 -276.29409981 428.56902504 C-276.33221084 423.51907417 -276.403856 418.46955987 -276.47070312 413.41992188 C-276.55485129 407.00381879 -276.62906404 400.58823884 -276.65942383 394.17163086 C-276.68487864 388.98021392 -276.74907441 383.79048433 -276.83805656 378.59978294 C-276.86494109 376.63426802 -276.87823324 374.66851238 -276.87683296 372.7028141 C-276.87689233 360.06209316 -278.49612759 350.95745235 -285.03626728 340.06702328 C-313.57537334 289.53635996 -307.84087817 219.96003502 -293.00830078 166.51928711 C-289.11127352 153.10941119 -284.45343861 138.71418171 -277.53036499 126.56022644 C-275.8811452 122.84102134 -275.53125117 119.62530955 -275.41333008 115.62768555 C-275.38096913 114.89115344 -275.34860819 114.15462133 -275.31526661 113.39577007 C-275.21556191 111.01414947 -275.13712508 108.63252922 -275.0625 106.25 C-275.00699834 104.66516954 -274.95144599 103.08034085 -274.89584351 101.49551392 C-274.75546744 97.2955172 -274.63705136 93.09512298 -274.52344322 88.89432716 C-274.39398327 84.20723161 -274.24740312 79.52065531 -274.10351562 74.83398438 C-273.9223066 68.91780646 -273.74643583 63.00163572 -273.59106445 57.0847168 C-273.46374637 52.25347388 -273.31792646 47.42310203 -273.15961647 42.59277916 C-273.10305314 40.76419296 -273.05323826 38.93538454 -273.01044273 37.10642433 C-272.94992177 34.55809697 -272.86574939 32.01155808 -272.77612305 29.46411133 C-272.76402298 28.71757797 -272.75192291 27.97104462 -272.73945618 27.20188904 C-272.52743041 22.14381004 -271.25193941 19.15802883 -268.0625 15.25 C-264.62037316 13.52893658 -260.65310653 14.1245698 -256.86547852 14.13989258 C-254.88505553 14.13934952 -252.90463256 14.13876248 -250.92420959 14.13813782 C-249.86912767 14.13956598 -248.81404575 14.14099415 -247.72699165 14.14246559 C-242.12198234 14.14598948 -236.51707278 14.12014893 -230.91210938 14.09960938 C-223.78726947 14.07538964 -216.66271686 14.05943983 -209.5378418 14.07495117 C-203.77751006 14.08672121 -198.01789375 14.06891577 -192.25767326 14.03250694 C-190.07680738 14.02397378 -187.89587159 14.02584383 -185.71502876 14.039011 C-172.12975785 14.11479468 -160.79163849 12.6819262 -148.0422039 7.92772293 C-143.03486189 6.21353198 -137.7657822 5.45383342 -132.5625 4.5625 C-130.42519502 4.19439443 -128.28963404 3.81596947 -126.15625 3.42578125 C-125.24552734 3.27020752 -124.33480469 3.11463379 -123.39648438 2.9543457 C-120.77032716 2.16182859 -119.89798141 1.22336237 -118.0625 -0.75 C-116.21582031 -1.68554687 -116.21582031 -1.68554687 -114.140625 -2.46875 C-113.36960449 -2.75991699 -112.59858398 -3.05108398 -111.80419922 -3.35107422 C-110.57080811 -3.79604248 -110.57080811 -3.79604248 -109.3125 -4.25 C-108.46574707 -4.55824707 -107.61899414 -4.86649414 -106.74658203 -5.18408203 C-71.86078549 -17.50327235 -34.1088776 -12.04036204 0 0 Z " fill="#22B6DB" transform="translate(323.0625,20.75)"/>
<path d="M0 0 C0.66435059 0.18191895 1.32870117 0.36383789 2.01318359 0.55126953 C24.00557167 6.75794854 43.58146964 19.51888509 61 34 C61.56976563 34.46680176 62.13953125 34.93360352 62.7265625 35.41455078 C78.93513413 48.74755463 95.15766246 63.57420294 107 81 C107.37479492 81.54108398 107.74958984 82.08216797 108.13574219 82.63964844 C129.20569106 113.2148374 137.8978301 148.70793562 131.68920898 185.65917969 C128.21365852 203.18804292 121.76091696 220.44711442 113 236 C112.42636719 237.05832031 111.85273438 238.11664063 111.26171875 239.20703125 C95.93197949 266.6595988 73.14061785 285.80439944 45 299 C43.85917969 299.5465625 42.71835937 300.093125 41.54296875 300.65625 C31.98910826 305.01610252 22.22100766 307.73918888 12 310 C11.27232422 310.16661133 10.54464844 310.33322266 9.79492188 310.50488281 C-15.96565763 316.14511849 -44.69281006 314.74216288 -70 308 C-71.50879093 307.63407956 -73.01788547 307.26940771 -74.52734375 306.90625 C-100.7557753 300.23774781 -124.94128207 285.3544084 -144.69140625 267.12109375 C-146.81495436 265.17001655 -148.98675681 263.30031718 -151.1875 261.4375 C-155.19724848 257.92199487 -158.60640881 254.10631073 -162 250 C-162.63397705 249.2584668 -162.63397705 249.2584668 -163.28076172 248.50195312 C-194.50989507 211.93571414 -211.27337612 164.05862299 -208 116 C-205.21167789 92.41356496 -197.66463043 70.58154361 -180 54 C-171.45103105 47.50085435 -161.51072156 41.3474599 -150.5625 42.625 C-142.4493117 42.70367334 -138.16764696 37.69332937 -132.62695312 32.49609375 C-112.16758708 13.68231897 -82.05859584 2.76123991 -55 -2 C-53.54787109 -2.30550781 -53.54787109 -2.30550781 -52.06640625 -2.6171875 C-34.67331455 -5.91938696 -16.9678386 -4.72428725 0 0 Z " fill="#FD5503" transform="translate(291,102)"/>
<path d="M0 0 C1.2375 0.42962036 1.2375 0.42962036 2.5 0.86791992 C6.73670675 2.42037266 10.71457875 4.06086929 14.56521606 6.4234314 C27.61203293 14.18177445 39.25011578 14.47012864 54.14453125 14.2421875 C56.52821387 14.2402183 58.91190379 14.2426698 61.295578 14.2492981 C67.51321809 14.2568631 73.72937279 14.21374838 79.94671631 14.15667725 C89.94039788 14.07344067 99.93438024 14.06736594 109.92835045 14.06363297 C113.4080173 14.05481175 116.88691797 14.02341325 120.3664093 13.98849487 C122.49142238 13.97866328 124.61643764 13.96928959 126.74145508 13.96044922 C128.18689194 13.93708748 128.18689194 13.93708748 129.66152954 13.91325378 C138.1027354 13.90881021 138.1027354 13.90881021 141.9375 17.25 C144.22967285 20.44775924 144.13584427 23.17954094 143.99682617 27.03613281 C143.95987137 28.20943649 143.92291656 29.38274017 143.88484192 30.59159851 C143.83389877 31.86590225 143.78295563 33.14020599 143.73046875 34.453125 C143.68413315 35.79646141 143.638758 37.13983126 143.59428406 38.48323059 C143.49800805 41.33940842 143.39542821 44.19526612 143.28826904 47.05105591 C143.12223394 51.50678569 142.97864155 55.96307299 142.83837891 60.41967773 C142.45982663 72.28964105 142.07758271 84.1574896 141.44483948 96.0171814 C141.25381694 99.63630328 141.09148043 103.25640018 140.93301392 106.8770752 C140.85413367 108.47113927 140.75966075 110.06452677 140.64779663 111.65661621 C139.8377714 123.18783841 142.23441336 130.54914292 147.97924805 140.5305481 C150.04929165 144.24495786 151.51883336 148.21112446 153 152.1875 C153.48678223 153.48494141 153.48678223 153.48494141 153.98339844 154.80859375 C159.24798901 169.21586979 163.30477004 184.07413431 166.25 199.125 C166.47091309 200.24358398 166.47091309 200.24358398 166.69628906 201.38476562 C169.55442894 217.11457526 170.31655329 232.92026098 170.25 248.875 C170.24726578 250.2464769 170.24726578 250.2464769 170.24447632 251.6456604 C170.13291175 285.0216351 164.31644867 317.38779953 152.0625 348.5 C151.62587036 349.61411255 151.62587036 349.61411255 151.18041992 350.75073242 C149.64024952 354.53166939 148.02202675 358.10288312 145.98342896 361.65101624 C140.13988247 371.89806446 138.87610401 379.95277684 139.296875 391.60546875 C139.32204958 393.20724087 139.34297881 394.80908466 139.35992432 396.41096497 C139.41245722 400.57427477 139.50990324 404.73511236 139.62133789 408.8972168 C139.79575214 415.5938231 139.91293076 422.29116071 140.00550079 428.98934364 C140.04616935 431.31511403 140.11430026 433.63890299 140.18548584 435.96391296 C140.21279416 437.38762709 140.23922919 438.81135832 140.26464844 440.23510742 C140.29766052 441.47258224 140.33067261 442.71005707 140.36468506 443.98503113 C139.85396564 447.88845184 138.67851309 449.48356888 135.9375 452.25 C133.07721442 453.68014279 130.69424026 453.31993392 127.49780273 453.26489258 C126.12341467 453.24543861 124.74901944 453.22648627 123.37461853 453.20796204 C122.64249586 453.1968017 121.91037319 453.18564137 121.15606499 453.17414284 C116.40620166 453.11258802 111.65583873 453.11279537 106.90563869 453.10153675 C102.7611767 453.08826279 98.61905252 453.05454999 94.4753418 452.97241211 C73.32390538 452.57336963 58.02462393 453.89566468 39.36795044 464.87539673 C34.3377937 467.72033024 28.93630572 469.45662028 23.4375 471.1875 C22.33204834 471.54465088 21.22659668 471.90180176 20.08764648 472.26977539 C-40.09088405 491.08331784 -103.12939609 482.38189873 -160.0625 457.25 C-160.89605515 456.73894211 -161.72961029 456.22788422 -162.58842468 455.70133972 C-167.23604179 453.7597378 -171.22587198 453.84786063 -176.21118164 453.89697266 C-177.21839767 453.89481247 -178.22561371 453.89265228 -179.26335144 453.89042664 C-181.44371134 453.88734565 -183.62408868 453.89092778 -185.80443001 453.90044022 C-189.25518221 453.91419212 -192.70536027 453.90773344 -196.15611267 453.89559937 C-205.96454673 453.86465033 -215.77284625 453.8695475 -225.58129883 453.88964844 C-231.58596891 453.90055482 -237.59020627 453.88740194 -243.59481621 453.85975266 C-245.88216316 453.85430734 -248.16955328 453.858388 -250.45686531 453.87215042 C-253.65279634 453.89116148 -256.84730695 453.87982228 -260.04321289 453.86181641 C-260.98828705 453.87515518 -261.93336121 453.88849396 -262.90707397 453.90223694 C-267.44420423 453.84533543 -269.42761062 453.73714178 -273.12620544 450.89926147 C-276.44809992 446.35420554 -276.21581561 442.22110204 -276.23266602 436.80981445 C-276.24677084 435.02191526 -276.26106728 433.23401757 -276.27552795 431.44612122 C-276.28165667 430.49667948 -276.28778538 429.54723774 -276.29409981 428.56902504 C-276.33221084 423.51907417 -276.403856 418.46955987 -276.47070312 413.41992188 C-276.55485129 407.00381879 -276.62906404 400.58823884 -276.65942383 394.17163086 C-276.68487864 388.98021392 -276.74907441 383.79048433 -276.83805656 378.59978294 C-276.86494109 376.63426802 -276.87823324 374.66851238 -276.87683296 372.7028141 C-276.87689233 360.06209316 -278.49612759 350.95745235 -285.03626728 340.06702328 C-313.57537334 289.53635996 -307.84087817 219.96003502 -293.00830078 166.51928711 C-289.11127352 153.10941119 -284.45343861 138.71418171 -277.53036499 126.56022644 C-275.8811452 122.84102134 -275.53125117 119.62530955 -275.41333008 115.62768555 C-275.38096913 114.89115344 -275.34860819 114.15462133 -275.31526661 113.39577007 C-275.21556191 111.01414947 -275.13712508 108.63252922 -275.0625 106.25 C-275.00699834 104.66516954 -274.95144599 103.08034085 -274.89584351 101.49551392 C-274.75546744 97.2955172 -274.63705136 93.09512298 -274.52344322 88.89432716 C-274.39398327 84.20723161 -274.24740312 79.52065531 -274.10351562 74.83398438 C-273.9223066 68.91780646 -273.74643583 63.00163572 -273.59106445 57.0847168 C-273.46374637 52.25347388 -273.31792646 47.42310203 -273.15961647 42.59277916 C-273.10305314 40.76419296 -273.05323826 38.93538454 -273.01044273 37.10642433 C-272.94992177 34.55809697 -272.86574939 32.01155808 -272.77612305 29.46411133 C-272.76402298 28.71757797 -272.75192291 27.97104462 -272.73945618 27.20188904 C-272.52743041 22.14381004 -271.25193941 19.15802883 -268.0625 15.25 C-264.62037316 13.52893658 -260.65310653 14.1245698 -256.86547852 14.13989258 C-254.88505553 14.13934952 -252.90463256 14.13876248 -250.92420959 14.13813782 C-249.86912767 14.13956598 -248.81404575 14.14099415 -247.72699165 14.14246559 C-242.12198234 14.14598948 -236.51707278 14.12014893 -230.91210938 14.09960938 C-223.78726947 14.07538964 -216.66271686 14.05943983 -209.5378418 14.07495117 C-203.77751006 14.08672121 -198.01789375 14.06891577 -192.25767326 14.03250694 C-190.07680738 14.02397378 -187.89587159 14.02584383 -185.71502876 14.039011 C-172.12975785 14.11479468 -160.79163849 12.6819262 -148.0422039 7.92772293 C-143.03486189 6.21353198 -137.7657822 5.45383342 -132.5625 4.5625 C-130.42519502 4.19439443 -128.28963404 3.81596947 -126.15625 3.42578125 C-125.24552734 3.27020752 -124.33480469 3.11463379 -123.39648438 2.9543457 C-120.77032716 2.16182859 -119.89798141 1.22336237 -118.0625 -0.75 C-116.21582031 -1.68554687 -116.21582031 -1.68554687 -114.140625 -2.46875 C-113.36960449 -2.75991699 -112.59858398 -3.05108398 -111.80419922 -3.35107422 C-110.57080811 -3.79604248 -110.57080811 -3.79604248 -109.3125 -4.25 C-108.46574707 -4.55824707 -107.61899414 -4.86649414 -106.74658203 -5.18408203 C-71.86078549 -17.50327235 -34.1088776 -12.04036204 0 0 Z M-89.625 1.625 C-90.8478772 1.81400879 -90.8478772 1.81400879 -92.09545898 2.00683594 C-96.52758353 2.67850068 -96.52758353 2.67850068 -100.0625 5.25 C-98.0825 5.91 -96.1025 6.57 -94.0625 7.25 C-94.0625 9.23 -94.0625 11.21 -94.0625 13.25 C-103.09355288 16.0107121 -112.0385935 17.79993266 -121.375 19.1875 C-134.20538172 21.12336262 -147.21114239 23.48070496 -158.9609375 29.2421875 C-161.44558935 30.43371199 -163.99138417 31.38397692 -166.5625 32.375 C-179.94719971 37.95053733 -191.92720159 46.05376778 -203.0625 55.25 C-203.6306543 55.71132324 -204.19880859 56.17264648 -204.78417969 56.64794922 C-229.8486599 77.06036236 -248.70803626 103.90240775 -262.0625 133.25 C-262.4229541 134.03810059 -262.7834082 134.82620117 -263.15478516 135.63818359 C-279.11974117 170.88080698 -287.30358109 207.09945514 -287.1875 245.8125 C-287.19136719 247.10607422 -287.19523437 248.39964844 -287.19921875 249.73242188 C-287.18739077 261.53083424 -286.81983736 273.23994073 -284.375 284.8125 C-284.20057373 285.64982666 -284.02614746 286.48715332 -283.84643555 287.34985352 C-273.50275704 335.42226691 -247.64472164 377.53708561 -208.0625 407.25 C-207.47049805 407.70729492 -206.87849609 408.16458984 -206.26855469 408.63574219 C-161.7317801 442.94079631 -106.04089022 464.44155129 -49.58520508 464.43530273 C-47.39579512 464.43747933 -45.20689893 464.4556787 -43.01757812 464.47460938 C5.53362963 464.67443384 53.33570371 444.93571757 88.9375 412.25 C89.4526416 411.78013672 89.9677832 411.31027344 90.49853516 410.82617188 C103.18846309 399.10988528 113.32653913 385.16732848 121.9375 370.25 C122.64694887 369.08893284 123.35794301 367.92880877 124.0703125 366.76953125 C131.20443911 354.91321034 136.06482733 342.16488556 140.9375 329.25 C141.46887573 327.88476196 141.46887573 327.88476196 142.01098633 326.49194336 C146.34407692 315.09995904 148.54850949 303.1704501 150.9375 291.25 C151.1226416 290.36006348 151.3077832 289.47012695 151.49853516 288.55322266 C161.16303609 240.40415867 151.85052884 187.66161924 132.25 143.3125 C131.88148926 142.47710693 131.51297852 141.64171387 131.13330078 140.78100586 C129.13841886 136.41197151 126.96846355 132.9970364 123.9375 129.25 C122.90574608 126.93053276 121.90639426 124.59642033 120.9375 122.25 C101.39218425 87.17676596 65.68142326 44.3491848 26.8671875 30.1640625 C24.9375 29.25 24.9375 29.25 22.734375 27.41796875 C19.16040122 24.64763991 15.39827078 22.84147168 11.3125 20.9375 C10.48290771 20.54796143 9.65331543 20.15842285 8.79858398 19.75708008 C0.69135692 16.02004173 -7.59423439 12.88985799 -16.0234375 9.96386719 C-17.76311508 9.3548134 -19.49219682 8.71563312 -21.21875 8.0703125 C-42.80056293 0.24993647 -66.99413581 -1.90166286 -89.625 1.625 Z " fill="#0D0D0D" transform="translate(323.0625,20.75)"/>
<path d="M0 0 C0.66435059 0.18191895 1.32870117 0.36383789 2.01318359 0.55126953 C24.00557167 6.75794854 43.58146964 19.51888509 61 34 C61.56976563 34.46680176 62.13953125 34.93360352 62.7265625 35.41455078 C78.93513413 48.74755463 95.15766246 63.57420294 107 81 C107.37479492 81.54108398 107.74958984 82.08216797 108.13574219 82.63964844 C129.20569106 113.2148374 137.8978301 148.70793562 131.68920898 185.65917969 C128.21365852 203.18804292 121.76091696 220.44711442 113 236 C112.42636719 237.05832031 111.85273438 238.11664063 111.26171875 239.20703125 C95.93197949 266.6595988 73.14061785 285.80439944 45 299 C43.85917969 299.5465625 42.71835937 300.093125 41.54296875 300.65625 C31.98910826 305.01610252 22.22100766 307.73918888 12 310 C11.27232422 310.16661133 10.54464844 310.33322266 9.79492188 310.50488281 C-15.96565763 316.14511849 -44.69281006 314.74216288 -70 308 C-71.50879093 307.63407956 -73.01788547 307.26940771 -74.52734375 306.90625 C-100.7557753 300.23774781 -124.94128207 285.3544084 -144.69140625 267.12109375 C-146.81495436 265.17001655 -148.98675681 263.30031718 -151.1875 261.4375 C-155.19724848 257.92199487 -158.60640881 254.10631073 -162 250 C-162.63397705 249.2584668 -162.63397705 249.2584668 -163.28076172 248.50195312 C-194.50989507 211.93571414 -211.27337612 164.05862299 -208 116 C-205.21167789 92.41356496 -197.66463043 70.58154361 -180 54 C-171.45103105 47.50085435 -161.51072156 41.3474599 -150.5625 42.625 C-142.4493117 42.70367334 -138.16764696 37.69332937 -132.62695312 32.49609375 C-112.16758708 13.68231897 -82.05859584 2.76123991 -55 -2 C-53.54787109 -2.30550781 -53.54787109 -2.30550781 -52.06640625 -2.6171875 C-34.67331455 -5.91938696 -16.9678386 -4.72428725 0 0 Z M-133.08984375 46.9765625 C-136 49 -136 49 -139.25390625 50.5234375 C-142.0936674 51.70202447 -142.0936674 51.70202447 -142.93359375 53.953125 C-144.63808347 57.2247463 -147.86304798 58.21827303 -151.0625 59.75 C-167.43726412 68.12588812 -175.61372219 81.06297634 -181.80859375 97.91796875 C-184.98280665 108.12242838 -185.4075594 118.3258501 -185.375 128.9375 C-185.3737915 129.66676697 -185.37258301 130.39603394 -185.37133789 131.1473999 C-185.22193443 164.44706287 -173.06027875 195.91996861 -154 223 C-153.57912109 223.59876953 -153.15824219 224.19753906 -152.72460938 224.81445312 C-128.41495756 258.77139983 -91.05932366 283.7208179 -49.8125 291.25 C-14.12776815 296.36851363 22.35295943 291.94906778 54 274 C55.07121094 273.42507813 56.14242187 272.85015625 57.24609375 272.2578125 C64.50883474 268.24248818 70.75089936 263.43920247 77 258 C77.84433594 257.28972656 78.68867188 256.57945312 79.55859375 255.84765625 C95.93925078 241.71582577 106.59072201 224.09470386 114 204 C114.59941406 202.44539063 114.59941406 202.44539063 115.2109375 200.859375 C125.73861489 171.8884733 123.58740335 137.92028111 111 110 C106.32109526 100.34403546 100.60534788 91.45172465 94 83 C93.40703125 82.20335937 92.8140625 81.40671875 92.203125 80.5859375 C86.84369486 73.66155376 80.72680989 67.51760792 74.5625 61.3125 C73.66112305 60.40185791 72.75974609 59.49121582 71.83105469 58.55297852 C70.55536621 57.28345337 70.55536621 57.28345337 69.25390625 55.98828125 C68.48377197 55.22040283 67.7136377 54.45252441 66.92016602 53.66137695 C65.17111326 51.78189733 65.17111326 51.78189733 63 52 C64.02889193 54.65268821 65.1137614 57.24020003 66.33203125 59.8125 C72.64987902 73.41504296 77.16940228 89.42552207 77.09765625 104.4921875 C77.09443359 105.69101563 77.09121094 106.88984375 77.08789062 108.125 C77.07951172 109.3625 77.07113281 110.6 77.0625 111.875 C77.05798828 113.13570313 77.05347656 114.39640625 77.04882812 115.6953125 C77.0370796 118.79692386 77.02065167 121.89843725 77 125 C77.58515381 124.8570752 78.17030762 124.71415039 78.77319336 124.56689453 C83.10108345 123.54987367 87.0898046 122.74900858 91.5625 122.875 C92.40941406 122.89304687 93.25632812 122.91109375 94.12890625 122.9296875 C94.74636719 122.95289063 95.36382812 122.97609375 96 123 C96.93377574 129.65315213 96.93377574 129.65315213 94.74609375 132.80859375 C90.96240799 136.34711629 87.2030625 138.34298949 82.42724609 140.31665039 C77.14417275 142.6288863 73.22181827 144.64774229 70.8984375 150.1484375 C69.72953779 153.51194985 68.77380536 156.93041926 67.7890625 160.3515625 C63.3053766 175.57685586 54.37511625 190.07892271 44 202 C43.26265625 202.87398437 42.5253125 203.74796875 41.765625 204.6484375 C28.54513717 219.88481532 13.15614674 230.55137702 -5 239 C-3.63654311 242.81086201 -1.88163266 245.79784676 0.5 249.0625 C6.12087912 256.79120879 6.12087912 256.79120879 5.625 261.75 C5.41875 262.8225 5.2125 263.895 5 265 C1.25103911 266.24965363 -0.82762171 266.48018585 -4.52734375 264.96484375 C-30.97080427 249.52368388 -44.35573242 212.84595159 -52 185 C-53.80403389 177.68869431 -54.54324898 170.37100493 -55.125 162.875 C-55.21136719 161.823125 -55.29773438 160.77125 -55.38671875 159.6875 C-55.5963473 157.12537327 -55.80068114 154.56294577 -56 152 C-67.56966023 151.28923589 -78.29327253 153.17442741 -89.58154297 155.50488281 C-91.51928491 155.90158589 -93.46384319 156.26493382 -95.41015625 156.6171875 C-106.94832368 158.9864877 -117.82980608 165.00063005 -127.9765625 170.8125 C-129.17901611 171.50073853 -129.17901611 171.50073853 -130.40576172 172.20288086 C-131.92950812 173.08662838 -133.44480482 173.98516651 -134.94970703 174.90063477 C-139.472123 177.54932799 -142.60802721 178.60362966 -148 178 C-149.9375 176.875 -149.9375 176.875 -151 175 C-151.37101156 171.48027192 -151.3634562 169.59073373 -149.48828125 166.54296875 C-131.48802638 147.05615783 -105.03156444 137.08351148 -78.76171875 135.84765625 C-71.14215614 135.76552923 -63.58413018 136.30489151 -56 137 C-57.95096415 118.94630188 -65.35843099 104.88132291 -78 92 C-78.60328125 91.37222656 -79.2065625 90.74445313 -79.828125 90.09765625 C-85.92424762 84.25333 -93.51854149 80.73498313 -101 77 C-101.60618164 76.69610352 -102.21236328 76.39220703 -102.83691406 76.07910156 C-105.48767914 74.75151861 -108.1417655 73.43196275 -110.8046875 72.12890625 C-113 71 -113 71 -114 70 C-114.25 66.5625 -114.25 66.5625 -114 63 C-109.87996162 60.25330775 -106.83855271 60.41528064 -102 61 C-82.91360598 65.95458016 -66.85865813 78.94436351 -56.94042969 95.80078125 C-51.38725311 105.82332603 -47.99460064 115.75983875 -46 127 C-27.35785771 118.63271288 -14.33294184 97.66743376 -6.5625 79.5625 C-1.68227113 66.48743596 0.97701825 52.02258527 1.31640625 38.09765625 C1.3475779 37.01380898 1.3475779 37.01380898 1.37937927 35.9080658 C1.44415426 33.6262963 1.5034203 31.34442333 1.5625 29.0625 C1.60575397 27.50454709 1.64937031 25.9466042 1.69335938 24.38867188 C1.79976039 20.59255078 1.90122499 16.79632686 2 13 C-42.90980602 -7.53521517 -97.48298419 20.41481597 -133.08984375 46.9765625 Z " fill="#0E0E0D" transform="translate(291,102)"/>
<path d="M0 0 C3.5645709 1.51975068 5.88901553 3.61797959 8.6328125 6.33203125 C9.95853271 7.64337036 9.95853271 7.64337036 11.31103516 8.98120117 C12.23964355 9.91552979 13.16825195 10.8498584 14.125 11.8125 C14.59975769 12.28974518 15.07451538 12.76699036 15.56365967 13.25869751 C43.1114905 41.03103016 58.45978314 72.87350782 58.36621094 112.26220703 C57.87708775 141.54360566 47.56607619 170.03947392 28 192 C27.30390625 192.82757813 26.6078125 193.65515625 25.890625 194.5078125 C16.5005362 205.44006917 5.58848565 214.0079954 -7 221 C-7.59087402 221.3309668 -8.18174805 221.66193359 -8.79052734 222.00292969 C-43.87499188 241.3963523 -87.53107977 246.80861117 -126.25146484 236.09228516 C-155.05812374 227.63256212 -180.39634087 211.73896279 -201 190 C-199 189 -199 189 -195.68359375 190.07421875 C-194.26683037 190.60828307 -192.85156646 191.14633531 -191.4375 191.6875 C-161.70048018 202.5629695 -130.66389255 203.69379416 -99.7734375 197.19140625 C-98.77691162 196.98725098 -97.78038574 196.7830957 -96.75366211 196.57275391 C-95.03786665 196.21587332 -93.32639525 195.83656349 -91.62329102 195.42333984 C-89.52734375 194.99609375 -89.52734375 194.99609375 -86 195 C-83.41796875 197.28125 -83.41796875 197.28125 -81.1875 200.5 C-76.72539208 206.47430079 -72.0283481 211.06437899 -65 214 C-62.19452466 214.24353085 -60.71141375 213.90380458 -58 213 C-56.61535796 208.93838335 -56.53853381 207.01095773 -58.3515625 203.0390625 C-60.75658568 198.89423532 -63.20478893 194.97423765 -66.23828125 191.2578125 C-68 189 -68 189 -68 187 C-66.69289063 186.38125 -66.69289063 186.38125 -65.359375 185.75 C-51.79629208 179.22253863 -40.20871515 170.99456107 -29 161 C-28.28199219 160.36707031 -27.56398438 159.73414063 -26.82421875 159.08203125 C-10.63755199 143.90074752 4.70310379 119.42621132 8.63671875 97.44140625 C10.53194669 92.65717755 13.2089868 91.6038903 17.6875 89.4375 C19.14194249 88.67162086 20.59381555 87.90084072 22.04296875 87.125 C23.07623291 86.57779297 23.07623291 86.57779297 24.13037109 86.01953125 C27.78031911 84.02917046 30.29518576 82.17815674 33 79 C33.54537381 76.09310463 33.36048335 73.98686204 33 71 C31.52129029 70.94443262 30.04191756 70.90652488 28.5625 70.875 C27.73878906 70.85179687 26.91507813 70.82859375 26.06640625 70.8046875 C21.92740964 71.06831786 18.02093721 72.0178793 14 73 C14.02618408 72.30777344 14.05236816 71.61554688 14.0793457 70.90234375 C14.81646252 48.24020031 13.41501205 24.1726594 1.3203125 4.23046875 C0 2 0 2 0 0 Z " fill="#FDFDFD" transform="translate(354,154)"/>
<path d="M0 0 C11.96005068 11.21254751 22.87643294 26.967723 29.13037109 42.14575195 C30.03278489 44.06990489 31.09897419 45.72121818 32.2890625 47.48046875 C35.58507584 52.69066372 37.76301818 58.27323975 40 64 C40.43787842 65.11286377 40.87575684 66.22572754 41.3269043 67.37231445 C47.38295499 82.93517948 51.77153784 98.62076402 55 115 C55.16806152 115.83692383 55.33612305 116.67384766 55.50927734 117.53613281 C61.11955464 146.96538015 59.84375578 179.74223026 54 209 C53.82871582 209.91185059 53.65743164 210.82370117 53.48095703 211.76318359 C45.7149026 252.32421906 25.57161076 290.35862534 -3 320 C-3.65097656 320.70253906 -4.30195313 321.40507812 -4.97265625 322.12890625 C-28.98729897 347.36722503 -63.71439729 363.44899281 -97.1875 371.3125 C-98.73570435 371.67649902 -98.73570435 371.67649902 -100.31518555 372.04785156 C-114.32498303 375.16530433 -128.12199211 376.38921476 -142.4375 376.3125 C-143.17056366 376.31034485 -143.90362732 376.3081897 -144.65890503 376.30596924 C-201.37451267 376.04084636 -257.55214905 355.13243308 -302 320 C-301.34 319.67 -300.68 319.34 -300 319 C-297.92041901 320.04135409 -295.94400061 321.14284649 -293.9375 322.3125 C-248.51541154 347.5886097 -188.20641993 359.08928839 -137 348 C-136.05302246 347.79600586 -135.10604492 347.59201172 -134.13037109 347.38183594 C-94.67374265 338.63068057 -60.30140527 321.90408392 -31 294 C-30.29359375 293.34644531 -29.5871875 292.69289063 -28.859375 292.01953125 C-22.50551785 285.96270401 -17.2178289 279.03313232 -12 272 C-11.59023926 271.45053711 -11.18047852 270.90107422 -10.75830078 270.33496094 C7.33954339 245.67562881 18.71530982 216.50774355 26.0625 187 C26.38347656 185.72125 26.70445312 184.4425 27.03515625 183.125 C28.96181645 175.05383446 30.37512733 167.05477253 31.09765625 158.78515625 C31.222864 157.36457664 31.222864 157.36457664 31.3506012 155.91529846 C32.21338678 145.42716085 32.43893959 134.95739327 32.4375 124.4375 C32.43889984 123.44341125 32.44029968 122.44932251 32.44174194 121.42510986 C32.42218849 104.42312651 30.89937374 88.58941695 27 72 C26.59952672 70.16812899 26.19975196 68.33610509 25.80078125 66.50390625 C20.96035355 45.13647104 13.04879666 24.07951244 2.12890625 5.06640625 C1 3 1 3 0 0 Z " fill="#FCFDFD" transform="translate(419,109)"/>
<path d="M0 0 C17.66466071 5.35774995 33.22873843 19.14211298 47 31 C47.55042969 31.47308594 48.10085938 31.94617188 48.66796875 32.43359375 C50.397349 34.46726378 51.0797709 36.4975588 52 39 C52.43957031 39.928125 52.87914062 40.85625 53.33203125 41.8125 C58.14144237 52.1673271 60.69085141 62.8478055 63 74 C63.20753906 74.95777344 63.41507812 75.91554688 63.62890625 76.90234375 C64.21365708 81.78347439 64.14354374 86.65149889 64.125 91.5625 C64.12886719 92.59052734 64.13273437 93.61855469 64.13671875 94.67773438 C64.13542969 95.67224609 64.13414062 96.66675781 64.1328125 97.69140625 C64.13168457 98.59060791 64.13055664 99.48980957 64.12939453 100.41625977 C63.99833145 103.03331752 63.57879488 105.44772724 63 108 C59.71300079 109.09782626 56.41959295 110.17519937 53.125 111.25 C52.22652344 111.55035156 51.32804687 111.85070312 50.40234375 112.16015625 C35.26076013 117.06811784 21.08638446 119.6437781 5.15649414 119.41162109 C2.5394846 119.37467508 -0.07611347 119.37060678 -2.69335938 119.37109375 C-11.31700062 119.33552856 -19.58095583 119.06271476 -28 117 C-28.76932861 116.82227051 -29.53865723 116.64454102 -30.33129883 116.46142578 C-32.45728342 115.95740984 -34.57261675 115.4235288 -36.6875 114.875 C-37.40099609 114.69324219 -38.11449219 114.51148438 -38.84960938 114.32421875 C-40.56726329 113.88615936 -42.28376697 113.44359348 -44 113 C-44 112.01 -44 111.02 -44 110 C-42.19921875 108.23046875 -42.19921875 108.23046875 -39.6875 106.1875 C-16.97583806 86.36291373 -1.54143103 54.9940741 0.84375 25.13671875 C1.26114508 16.7575125 1.61412799 8.26279804 0 0 Z " fill="#FD5603" transform="translate(305,120)"/>
<path d="M0 0 C4.77068083 0.70711672 8.94302753 2.50239707 13.375 4.3125 C29.63870065 10.78483976 44.61939193 13.24757602 62.125 13.3125 C62.82609894 13.31545074 63.52719788 13.31840149 64.24954224 13.32144165 C79.56584982 13.33602674 94.61113666 11.85783178 109.09204102 6.5793457 C111 6 111 6 114 6 C110.43144204 26.34078035 99.27994443 46.41050002 86 62 C84.90751953 63.30130859 84.90751953 63.30130859 83.79296875 64.62890625 C70.244261 80.22822922 54.66490413 91.31463629 36 100 C21.34446303 85.74875371 13.34423408 67.09308244 7 48 C6.59910156 46.82050781 6.19820313 45.64101563 5.78515625 44.42578125 C1.33382929 30.23192735 -0.7446072 14.86456595 0 0 Z " fill="#FE5603" transform="translate(250,242)"/>
<path d="M0 0 C21.78 0 43.56 0 66 0 C66.14984709 44.05504587 66.14984709 44.05504587 65 66 C64.34 66 63.68 66 63 66 C61.94921875 64.59375 61.94921875 64.59375 60.6875 62.5 C46.29767869 40.27068766 26.54356467 20.83516206 5.38354492 5.09912109 C4.68334229 4.57785645 3.98313965 4.0565918 3.26171875 3.51953125 C2.63225342 3.05651611 2.00278809 2.59350098 1.35424805 2.11645508 C0.90734619 1.7480249 0.46044434 1.37959473 0 1 C0 0.67 0 0.34 0 0 Z " fill="#E8971A" transform="translate(382,53)"/>
<path d="M0 0 C2.8389598 2.81929313 5.64520786 5.6511033 8.34765625 8.6015625 C23.51746964 25.0556037 39.93847752 38.69942838 58.19140625 51.609375 C58.78824219 52.06828125 59.38507813 52.5271875 60 53 C60 53.33 60 53.66 60 54 C40.53 54 21.06 54 1 54 C0.40083161 40.8182955 -0.14588356 27.7933096 -0.0625 14.625 C-0.05745329 13.18359538 -0.05289622 11.74218896 -0.04882812 10.30078125 C-0.03812274 6.86714826 -0.02105104 3.43358715 0 0 Z " fill="#E49416" transform="translate(64,402)"/>
<path d="M0 0 C18.15 0 36.3 0 55 0 C51.74434517 3.25565483 48.66858009 5.83354397 45 8.5625 C38.2733531 13.64717182 32.10561403 19.19288266 26 25 C25.36707031 25.58007812 24.73414062 26.16015625 24.08203125 26.7578125 C15.35781574 35.00540816 8.3596567 45.31509847 1.4609375 55.0859375 C0.97882813 55.71757813 0.49671875 56.34921875 0 57 C-0.33 57 -0.66 57 -1 57 C-1.07493609 44.30353691 -0.84268518 31.62901498 -0.5 18.9375 C-0.335 12.688125 -0.17 6.43875 0 0 Z " fill="#E69516" transform="translate(68,53)"/>
<path d="M0 0 C4.29 0 8.58 0 13 0 C13.10723506 22.02443258 13.15280519 43.99859032 12 66 C11.34 66 10.68 66 10 66 C8.66796875 64.2421875 8.66796875 64.2421875 7.1875 61.875 C5.41374298 59.05030384 3.74883335 56.73866668 1.42456055 54.3203125 C-1.45057419 50.8787624 -1.66813618 47.68897845 -1.5234375 43.3203125 C-1.51873444 42.58988739 -1.51403137 41.85946228 -1.50918579 41.10690308 C-1.48797254 38.7786174 -1.43164239 36.45266333 -1.375 34.125 C-1.35846229 32.60158493 -1.34412218 31.07814435 -1.33203125 29.5546875 C-1.22328001 19.68055127 -0.70713587 9.84783282 0 0 Z " fill="#F9F9F9" transform="translate(435,53)"/>
<path d="M0 0 C5.90388642 -0.2244459 11.8052304 -0.38669447 17.71240234 -0.49438477 C19.71642366 -0.53932303 21.72015535 -0.60050001 23.72314453 -0.67895508 C43.80538474 -1.44518519 43.80538474 -1.44518519 52.76660156 6.66040039 C53.87213379 7.8185022 53.87213379 7.8185022 55 9 C56.32 10.32 57.64 11.64 59 13 C39.53 13 20.06 13 0 13 C0 8.71 0 4.42 0 0 Z " fill="#FDFBF8" transform="translate(65,443)"/>
<path d="M0 0 C0.66 0 1.32 0 2 0 C2 10.89 2 21.78 2 33 C-8.89 33 -19.78 33 -31 33 C-23.9 25.9 -23.9 25.9 -21.5625 23.6875 C-20.48162109 22.64142578 -20.48162109 22.64142578 -19.37890625 21.57421875 C-16.40679364 19.60745129 -14.49425112 19.70336573 -11 20 C-11.10183594 18.96488281 -11.20367187 17.92976563 -11.30859375 16.86328125 C-10.91924038 11.98897137 -9.46921655 10.60377255 -6.0625 7.1875 C-2.61968118 3.89091334 -2.61968118 3.89091334 0 0 Z " fill="#F7F7F6" transform="translate(443,423)"/>
<path d="M0 0 C0.33 0 0.66 0 1 0 C1 1.98 1 3.96 1 6 C-0.98 6 -2.96 6 -5 6 C-3.35830472 3.97945196 -1.69088222 1.97956942 0 0 Z " fill="#C68115" transform="translate(431,437)"/>
<path d="M0 0 C3.0831351 1.19899698 6.06279492 2.47700477 9 4 C8.67 4.99 8.34 5.98 8 7 C6.66382648 6.02471263 5.3311249 5.04466681 4 4.0625 C3.2575 3.51722656 2.515 2.97195313 1.75 2.41015625 C1.1725 1.94480469 0.595 1.47945313 0 1 C0 0.67 0 0.34 0 0 Z " fill="#E0ECEF" transform="translate(117,428)"/>
</svg>
